M48
; DRILL file {KiCad (5.1.9)-1} date 04/29/21 23:37:41
; FORMAT={-:-/ absolute / metric / decimal}
; #@! TF.CreationDate,2021-04-29T23:37:41+02:00
; #@! TF.GenerationSoftware,Kicad,Pcbnew,(5.1.9)-1
; #@! TF.FileFunction,Plated,1,2,PTH
FMAT,2
METRIC
T1C0.400
%
G90
G05
T1
X127.15Y-106.425
X127.175Y-105.175
X127.25Y-94.175
X129.575Y-93.7
X129.675Y-106.375
X132.2Y-93.125
X132.2Y-106.45
X133.575Y-101.675
X134.75Y-106.525
X134.8Y-97.4
X134.825Y-93.025
X137.4Y-93.0
X138.675Y-101.225
X139.925Y-92.875
X140.101Y-97.691
X140.275Y-100.725
X142.35Y-93.85
X142.4Y-92.8
X142.5Y-100.725
X143.25Y-100.025
X144.911Y-101.239
X145.025Y-94.4
X147.35Y-103.25
X147.5Y-97.0
X148.55Y-99.4
X148.875Y-97.95
X149.975Y-104.05
X150.0Y-96.65
X150.091Y-105.716
X150.45Y-98.55
X152.65Y-103.1
X152.7Y-92.65
X153.2Y-98.275
X153.9Y-101.025
X155.125Y-92.825
X157.5Y-102.9
X157.625Y-92.85
X159.15Y-98.0
X159.625Y-101.625
X160.125Y-106.9
X160.25Y-92.825
X161.0Y-98.9
X162.675Y-106.85
X162.725Y-92.85
X162.725Y-103.6
X164.725Y-101.775
X165.25Y-104.225
X165.3Y-92.85
X165.775Y-101.775
X166.525Y-100.05
X167.7Y-103.5
X167.8Y-92.9
X170.275Y-106.875
X170.35Y-103.3
X171.525Y-103.825
X172.825Y-93.475
X172.825Y-106.675
T0
M30
