%TF.GenerationSoftware,KiCad,Pcbnew,(5.1.9)-1*%
%TF.CreationDate,2021-04-29T23:37:35+02:00*%
%TF.ProjectId,STMega32,53544d65-6761-4333-922e-6b696361645f,rev?*%
%TF.SameCoordinates,Original*%
%TF.FileFunction,Legend,Bot*%
%TF.FilePolarity,Positive*%
%FSLAX46Y46*%
G04 Gerber Fmt 4.6, Leading zero omitted, Abs format (unit mm)*
G04 Created by KiCad (PCBNEW (5.1.9)-1) date 2021-04-29 23:37:35*
%MOMM*%
%LPD*%
G01*
G04 APERTURE LIST*
%ADD10C,0.250000*%
%ADD11C,0.120000*%
%ADD12C,0.150000*%
G04 APERTURE END LIST*
D10*
%TO.C,J1*%
X173245000Y-103500000D02*
G75*
G03*
X173245000Y-103500000I-125000J0D01*
G01*
D11*
X175000000Y-107620000D02*
X175000000Y-102370000D01*
X125000000Y-107620000D02*
X125000000Y-102370000D01*
X125000000Y-102370000D02*
X175000000Y-102370000D01*
X126750000Y-107620000D02*
X127500000Y-107620000D01*
X129290000Y-107620000D02*
X130040000Y-107620000D01*
X131830000Y-107620000D02*
X132580000Y-107620000D01*
X134370000Y-107620000D02*
X135120000Y-107620000D01*
X136910000Y-107620000D02*
X137660000Y-107620000D01*
X139450000Y-107620000D02*
X140200000Y-107620000D01*
X141990000Y-107620000D02*
X142740000Y-107620000D01*
X144530000Y-107620000D02*
X145280000Y-107620000D01*
X147070000Y-107620000D02*
X147820000Y-107620000D01*
X149610000Y-107620000D02*
X150360000Y-107620000D01*
X152150000Y-107620000D02*
X152900000Y-107620000D01*
X154690000Y-107620000D02*
X155440000Y-107620000D01*
X157230000Y-107620000D02*
X157980000Y-107620000D01*
X159770000Y-107620000D02*
X160520000Y-107620000D01*
X162310000Y-107620000D02*
X163060000Y-107620000D01*
X164850000Y-107620000D02*
X165600000Y-107620000D01*
X167390000Y-107620000D02*
X168140000Y-107620000D01*
X169930000Y-107620000D02*
X170680000Y-107620000D01*
X172470000Y-107620000D02*
X173220000Y-107620000D01*
%TO.C,J2*%
X127530000Y-92380000D02*
X126780000Y-92380000D01*
X130070000Y-92380000D02*
X129320000Y-92380000D01*
X132610000Y-92380000D02*
X131860000Y-92380000D01*
X135150000Y-92380000D02*
X134400000Y-92380000D01*
X137690000Y-92380000D02*
X136940000Y-92380000D01*
X140230000Y-92380000D02*
X139480000Y-92380000D01*
X142770000Y-92380000D02*
X142020000Y-92380000D01*
X145310000Y-92380000D02*
X144560000Y-92380000D01*
X147850000Y-92380000D02*
X147100000Y-92380000D01*
X150390000Y-92380000D02*
X149640000Y-92380000D01*
X152930000Y-92380000D02*
X152180000Y-92380000D01*
X155470000Y-92380000D02*
X154720000Y-92380000D01*
X158010000Y-92380000D02*
X157260000Y-92380000D01*
X160550000Y-92380000D02*
X159800000Y-92380000D01*
X163090000Y-92380000D02*
X162340000Y-92380000D01*
X165630000Y-92380000D02*
X164880000Y-92380000D01*
X168170000Y-92380000D02*
X167420000Y-92380000D01*
X170710000Y-92380000D02*
X169960000Y-92380000D01*
X173250000Y-92380000D02*
X172500000Y-92380000D01*
X175000000Y-97630000D02*
X125000000Y-97630000D01*
X175000000Y-92380000D02*
X175000000Y-97630000D01*
X125000000Y-92380000D02*
X125000000Y-97630000D01*
D10*
X127005000Y-96500000D02*
G75*
G03*
X127005000Y-96500000I-125000J0D01*
G01*
%TO.C,J1*%
D12*
X126702380Y-100741666D02*
X127416666Y-100741666D01*
X127559523Y-100694047D01*
X127654761Y-100598809D01*
X127702380Y-100455952D01*
X127702380Y-100360714D01*
X127702380Y-101741666D02*
X127702380Y-101170238D01*
X127702380Y-101455952D02*
X126702380Y-101455952D01*
X126845238Y-101360714D01*
X126940476Y-101265476D01*
X126988095Y-101170238D01*
%TO.C,J2*%
X126627380Y-98216666D02*
X127341666Y-98216666D01*
X127484523Y-98169047D01*
X127579761Y-98073809D01*
X127627380Y-97930952D01*
X127627380Y-97835714D01*
X126722619Y-98645238D02*
X126675000Y-98692857D01*
X126627380Y-98788095D01*
X126627380Y-99026190D01*
X126675000Y-99121428D01*
X126722619Y-99169047D01*
X126817857Y-99216666D01*
X126913095Y-99216666D01*
X127055952Y-99169047D01*
X127627380Y-98597619D01*
X127627380Y-99216666D01*
%TD*%
M02*
