%TF.GenerationSoftware,KiCad,Pcbnew,(5.1.9)-1*%
%TF.CreationDate,2021-04-29T23:37:35+02:00*%
%TF.ProjectId,STMega32,53544d65-6761-4333-922e-6b696361645f,rev?*%
%TF.SameCoordinates,Original*%
%TF.FileFunction,Paste,Top*%
%TF.FilePolarity,Positive*%
%FSLAX46Y46*%
G04 Gerber Fmt 4.6, Leading zero omitted, Abs format (unit mm)*
G04 Created by KiCad (PCBNEW (5.1.9)-1) date 2021-04-29 23:37:35*
%MOMM*%
%LPD*%
G01*
G04 APERTURE LIST*
%ADD10R,0.700000X0.450000*%
%ADD11R,1.060000X0.650000*%
G04 APERTURE END LIST*
%TO.C,C1*%
G36*
G01*
X129775000Y-97625000D02*
X129775000Y-97125000D01*
G75*
G02*
X130000000Y-96900000I225000J0D01*
G01*
X130450000Y-96900000D01*
G75*
G02*
X130675000Y-97125000I0J-225000D01*
G01*
X130675000Y-97625000D01*
G75*
G02*
X130450000Y-97850000I-225000J0D01*
G01*
X130000000Y-97850000D01*
G75*
G02*
X129775000Y-97625000I0J225000D01*
G01*
G37*
G36*
G01*
X131325000Y-97625000D02*
X131325000Y-97125000D01*
G75*
G02*
X131550000Y-96900000I225000J0D01*
G01*
X132000000Y-96900000D01*
G75*
G02*
X132225000Y-97125000I0J-225000D01*
G01*
X132225000Y-97625000D01*
G75*
G02*
X132000000Y-97850000I-225000J0D01*
G01*
X131550000Y-97850000D01*
G75*
G02*
X131325000Y-97625000I0J225000D01*
G01*
G37*
%TD*%
%TO.C,C2*%
G36*
G01*
X134900000Y-100325000D02*
X135400000Y-100325000D01*
G75*
G02*
X135625000Y-100550000I0J-225000D01*
G01*
X135625000Y-101000000D01*
G75*
G02*
X135400000Y-101225000I-225000J0D01*
G01*
X134900000Y-101225000D01*
G75*
G02*
X134675000Y-101000000I0J225000D01*
G01*
X134675000Y-100550000D01*
G75*
G02*
X134900000Y-100325000I225000J0D01*
G01*
G37*
G36*
G01*
X134900000Y-98775000D02*
X135400000Y-98775000D01*
G75*
G02*
X135625000Y-99000000I0J-225000D01*
G01*
X135625000Y-99450000D01*
G75*
G02*
X135400000Y-99675000I-225000J0D01*
G01*
X134900000Y-99675000D01*
G75*
G02*
X134675000Y-99450000I0J225000D01*
G01*
X134675000Y-99000000D01*
G75*
G02*
X134900000Y-98775000I225000J0D01*
G01*
G37*
%TD*%
%TO.C,C3*%
G36*
G01*
X132225000Y-102375000D02*
X132225000Y-102875000D01*
G75*
G02*
X132000000Y-103100000I-225000J0D01*
G01*
X131550000Y-103100000D01*
G75*
G02*
X131325000Y-102875000I0J225000D01*
G01*
X131325000Y-102375000D01*
G75*
G02*
X131550000Y-102150000I225000J0D01*
G01*
X132000000Y-102150000D01*
G75*
G02*
X132225000Y-102375000I0J-225000D01*
G01*
G37*
G36*
G01*
X130675000Y-102375000D02*
X130675000Y-102875000D01*
G75*
G02*
X130450000Y-103100000I-225000J0D01*
G01*
X130000000Y-103100000D01*
G75*
G02*
X129775000Y-102875000I0J225000D01*
G01*
X129775000Y-102375000D01*
G75*
G02*
X130000000Y-102150000I225000J0D01*
G01*
X130450000Y-102150000D01*
G75*
G02*
X130675000Y-102375000I0J-225000D01*
G01*
G37*
%TD*%
%TO.C,C4*%
G36*
G01*
X136475000Y-100325000D02*
X136975000Y-100325000D01*
G75*
G02*
X137200000Y-100550000I0J-225000D01*
G01*
X137200000Y-101000000D01*
G75*
G02*
X136975000Y-101225000I-225000J0D01*
G01*
X136475000Y-101225000D01*
G75*
G02*
X136250000Y-101000000I0J225000D01*
G01*
X136250000Y-100550000D01*
G75*
G02*
X136475000Y-100325000I225000J0D01*
G01*
G37*
G36*
G01*
X136475000Y-98775000D02*
X136975000Y-98775000D01*
G75*
G02*
X137200000Y-99000000I0J-225000D01*
G01*
X137200000Y-99450000D01*
G75*
G02*
X136975000Y-99675000I-225000J0D01*
G01*
X136475000Y-99675000D01*
G75*
G02*
X136250000Y-99450000I0J225000D01*
G01*
X136250000Y-99000000D01*
G75*
G02*
X136475000Y-98775000I225000J0D01*
G01*
G37*
%TD*%
D10*
%TO.C,Q1*%
X170000000Y-100650000D03*
X170000000Y-99350000D03*
X168000000Y-100000000D03*
%TD*%
%TO.C,R1*%
G36*
G01*
X168575000Y-97625000D02*
X168575000Y-98175000D01*
G75*
G02*
X168375000Y-98375000I-200000J0D01*
G01*
X167975000Y-98375000D01*
G75*
G02*
X167775000Y-98175000I0J200000D01*
G01*
X167775000Y-97625000D01*
G75*
G02*
X167975000Y-97425000I200000J0D01*
G01*
X168375000Y-97425000D01*
G75*
G02*
X168575000Y-97625000I0J-200000D01*
G01*
G37*
G36*
G01*
X170225000Y-97625000D02*
X170225000Y-98175000D01*
G75*
G02*
X170025000Y-98375000I-200000J0D01*
G01*
X169625000Y-98375000D01*
G75*
G02*
X169425000Y-98175000I0J200000D01*
G01*
X169425000Y-97625000D01*
G75*
G02*
X169625000Y-97425000I200000J0D01*
G01*
X170025000Y-97425000D01*
G75*
G02*
X170225000Y-97625000I0J-200000D01*
G01*
G37*
%TD*%
%TO.C,R2*%
G36*
G01*
X167775000Y-102375000D02*
X167775000Y-101825000D01*
G75*
G02*
X167975000Y-101625000I200000J0D01*
G01*
X168375000Y-101625000D01*
G75*
G02*
X168575000Y-101825000I0J-200000D01*
G01*
X168575000Y-102375000D01*
G75*
G02*
X168375000Y-102575000I-200000J0D01*
G01*
X167975000Y-102575000D01*
G75*
G02*
X167775000Y-102375000I0J200000D01*
G01*
G37*
G36*
G01*
X169425000Y-102375000D02*
X169425000Y-101825000D01*
G75*
G02*
X169625000Y-101625000I200000J0D01*
G01*
X170025000Y-101625000D01*
G75*
G02*
X170225000Y-101825000I0J-200000D01*
G01*
X170225000Y-102375000D01*
G75*
G02*
X170025000Y-102575000I-200000J0D01*
G01*
X169625000Y-102575000D01*
G75*
G02*
X169425000Y-102375000I0J200000D01*
G01*
G37*
%TD*%
D11*
%TO.C,U2*%
X130000000Y-99050000D03*
X130000000Y-100000000D03*
X130000000Y-100950000D03*
X132200000Y-100950000D03*
X132200000Y-99050000D03*
%TD*%
%TO.C,LED1*%
G36*
G01*
X128656250Y-101225000D02*
X128143750Y-101225000D01*
G75*
G02*
X127925000Y-101006250I0J218750D01*
G01*
X127925000Y-100568750D01*
G75*
G02*
X128143750Y-100350000I218750J0D01*
G01*
X128656250Y-100350000D01*
G75*
G02*
X128875000Y-100568750I0J-218750D01*
G01*
X128875000Y-101006250D01*
G75*
G02*
X128656250Y-101225000I-218750J0D01*
G01*
G37*
G36*
G01*
X128656250Y-99650000D02*
X128143750Y-99650000D01*
G75*
G02*
X127925000Y-99431250I0J218750D01*
G01*
X127925000Y-98993750D01*
G75*
G02*
X128143750Y-98775000I218750J0D01*
G01*
X128656250Y-98775000D01*
G75*
G02*
X128875000Y-98993750I0J-218750D01*
G01*
X128875000Y-99431250D01*
G75*
G02*
X128656250Y-99650000I-218750J0D01*
G01*
G37*
%TD*%
%TO.C,LED2*%
G36*
G01*
X171831250Y-99650000D02*
X171318750Y-99650000D01*
G75*
G02*
X171100000Y-99431250I0J218750D01*
G01*
X171100000Y-98993750D01*
G75*
G02*
X171318750Y-98775000I218750J0D01*
G01*
X171831250Y-98775000D01*
G75*
G02*
X172050000Y-98993750I0J-218750D01*
G01*
X172050000Y-99431250D01*
G75*
G02*
X171831250Y-99650000I-218750J0D01*
G01*
G37*
G36*
G01*
X171831250Y-101225000D02*
X171318750Y-101225000D01*
G75*
G02*
X171100000Y-101006250I0J218750D01*
G01*
X171100000Y-100568750D01*
G75*
G02*
X171318750Y-100350000I218750J0D01*
G01*
X171831250Y-100350000D01*
G75*
G02*
X172050000Y-100568750I0J-218750D01*
G01*
X172050000Y-101006250D01*
G75*
G02*
X171831250Y-101225000I-218750J0D01*
G01*
G37*
%TD*%
%TO.C,R3*%
G36*
G01*
X126625000Y-98775000D02*
X127175000Y-98775000D01*
G75*
G02*
X127375000Y-98975000I0J-200000D01*
G01*
X127375000Y-99375000D01*
G75*
G02*
X127175000Y-99575000I-200000J0D01*
G01*
X126625000Y-99575000D01*
G75*
G02*
X126425000Y-99375000I0J200000D01*
G01*
X126425000Y-98975000D01*
G75*
G02*
X126625000Y-98775000I200000J0D01*
G01*
G37*
G36*
G01*
X126625000Y-100425000D02*
X127175000Y-100425000D01*
G75*
G02*
X127375000Y-100625000I0J-200000D01*
G01*
X127375000Y-101025000D01*
G75*
G02*
X127175000Y-101225000I-200000J0D01*
G01*
X126625000Y-101225000D01*
G75*
G02*
X126425000Y-101025000I0J200000D01*
G01*
X126425000Y-100625000D01*
G75*
G02*
X126625000Y-100425000I200000J0D01*
G01*
G37*
%TD*%
%TO.C,R4*%
G36*
G01*
X172850000Y-100425000D02*
X173400000Y-100425000D01*
G75*
G02*
X173600000Y-100625000I0J-200000D01*
G01*
X173600000Y-101025000D01*
G75*
G02*
X173400000Y-101225000I-200000J0D01*
G01*
X172850000Y-101225000D01*
G75*
G02*
X172650000Y-101025000I0J200000D01*
G01*
X172650000Y-100625000D01*
G75*
G02*
X172850000Y-100425000I200000J0D01*
G01*
G37*
G36*
G01*
X172850000Y-98775000D02*
X173400000Y-98775000D01*
G75*
G02*
X173600000Y-98975000I0J-200000D01*
G01*
X173600000Y-99375000D01*
G75*
G02*
X173400000Y-99575000I-200000J0D01*
G01*
X172850000Y-99575000D01*
G75*
G02*
X172650000Y-99375000I0J200000D01*
G01*
X172650000Y-98975000D01*
G75*
G02*
X172850000Y-98775000I200000J0D01*
G01*
G37*
%TD*%
%TO.C,U1*%
G36*
G01*
X142840544Y-101962222D02*
X142734478Y-101856156D01*
G75*
G02*
X142734478Y-101750090I53033J53033D01*
G01*
X143724428Y-100760140D01*
G75*
G02*
X143830494Y-100760140I53033J-53033D01*
G01*
X143936560Y-100866206D01*
G75*
G02*
X143936560Y-100972272I-53033J-53033D01*
G01*
X142946610Y-101962222D01*
G75*
G02*
X142840544Y-101962222I-53033J53033D01*
G01*
G37*
G36*
G01*
X143194097Y-102315775D02*
X143088031Y-102209709D01*
G75*
G02*
X143088031Y-102103643I53033J53033D01*
G01*
X144077981Y-101113693D01*
G75*
G02*
X144184047Y-101113693I53033J-53033D01*
G01*
X144290113Y-101219759D01*
G75*
G02*
X144290113Y-101325825I-53033J-53033D01*
G01*
X143300163Y-102315775D01*
G75*
G02*
X143194097Y-102315775I-53033J53033D01*
G01*
G37*
G36*
G01*
X143547650Y-102669328D02*
X143441584Y-102563262D01*
G75*
G02*
X143441584Y-102457196I53033J53033D01*
G01*
X144431534Y-101467246D01*
G75*
G02*
X144537600Y-101467246I53033J-53033D01*
G01*
X144643666Y-101573312D01*
G75*
G02*
X144643666Y-101679378I-53033J-53033D01*
G01*
X143653716Y-102669328D01*
G75*
G02*
X143547650Y-102669328I-53033J53033D01*
G01*
G37*
G36*
G01*
X143901204Y-103022882D02*
X143795138Y-102916816D01*
G75*
G02*
X143795138Y-102810750I53033J53033D01*
G01*
X144785088Y-101820800D01*
G75*
G02*
X144891154Y-101820800I53033J-53033D01*
G01*
X144997220Y-101926866D01*
G75*
G02*
X144997220Y-102032932I-53033J-53033D01*
G01*
X144007270Y-103022882D01*
G75*
G02*
X143901204Y-103022882I-53033J53033D01*
G01*
G37*
G36*
G01*
X144254757Y-103376435D02*
X144148691Y-103270369D01*
G75*
G02*
X144148691Y-103164303I53033J53033D01*
G01*
X145138641Y-102174353D01*
G75*
G02*
X145244707Y-102174353I53033J-53033D01*
G01*
X145350773Y-102280419D01*
G75*
G02*
X145350773Y-102386485I-53033J-53033D01*
G01*
X144360823Y-103376435D01*
G75*
G02*
X144254757Y-103376435I-53033J53033D01*
G01*
G37*
G36*
G01*
X144608311Y-103729989D02*
X144502245Y-103623923D01*
G75*
G02*
X144502245Y-103517857I53033J53033D01*
G01*
X145492195Y-102527907D01*
G75*
G02*
X145598261Y-102527907I53033J-53033D01*
G01*
X145704327Y-102633973D01*
G75*
G02*
X145704327Y-102740039I-53033J-53033D01*
G01*
X144714377Y-103729989D01*
G75*
G02*
X144608311Y-103729989I-53033J53033D01*
G01*
G37*
G36*
G01*
X144961864Y-104083542D02*
X144855798Y-103977476D01*
G75*
G02*
X144855798Y-103871410I53033J53033D01*
G01*
X145845748Y-102881460D01*
G75*
G02*
X145951814Y-102881460I53033J-53033D01*
G01*
X146057880Y-102987526D01*
G75*
G02*
X146057880Y-103093592I-53033J-53033D01*
G01*
X145067930Y-104083542D01*
G75*
G02*
X144961864Y-104083542I-53033J53033D01*
G01*
G37*
G36*
G01*
X145315417Y-104437095D02*
X145209351Y-104331029D01*
G75*
G02*
X145209351Y-104224963I53033J53033D01*
G01*
X146199301Y-103235013D01*
G75*
G02*
X146305367Y-103235013I53033J-53033D01*
G01*
X146411433Y-103341079D01*
G75*
G02*
X146411433Y-103447145I-53033J-53033D01*
G01*
X145421483Y-104437095D01*
G75*
G02*
X145315417Y-104437095I-53033J53033D01*
G01*
G37*
G36*
G01*
X145668971Y-104790649D02*
X145562905Y-104684583D01*
G75*
G02*
X145562905Y-104578517I53033J53033D01*
G01*
X146552855Y-103588567D01*
G75*
G02*
X146658921Y-103588567I53033J-53033D01*
G01*
X146764987Y-103694633D01*
G75*
G02*
X146764987Y-103800699I-53033J-53033D01*
G01*
X145775037Y-104790649D01*
G75*
G02*
X145668971Y-104790649I-53033J53033D01*
G01*
G37*
G36*
G01*
X146022524Y-105144202D02*
X145916458Y-105038136D01*
G75*
G02*
X145916458Y-104932070I53033J53033D01*
G01*
X146906408Y-103942120D01*
G75*
G02*
X147012474Y-103942120I53033J-53033D01*
G01*
X147118540Y-104048186D01*
G75*
G02*
X147118540Y-104154252I-53033J-53033D01*
G01*
X146128590Y-105144202D01*
G75*
G02*
X146022524Y-105144202I-53033J53033D01*
G01*
G37*
G36*
G01*
X146376077Y-105497755D02*
X146270011Y-105391689D01*
G75*
G02*
X146270011Y-105285623I53033J53033D01*
G01*
X147259961Y-104295673D01*
G75*
G02*
X147366027Y-104295673I53033J-53033D01*
G01*
X147472093Y-104401739D01*
G75*
G02*
X147472093Y-104507805I-53033J-53033D01*
G01*
X146482143Y-105497755D01*
G75*
G02*
X146376077Y-105497755I-53033J53033D01*
G01*
G37*
G36*
G01*
X146729631Y-105851309D02*
X146623565Y-105745243D01*
G75*
G02*
X146623565Y-105639177I53033J53033D01*
G01*
X147613515Y-104649227D01*
G75*
G02*
X147719581Y-104649227I53033J-53033D01*
G01*
X147825647Y-104755293D01*
G75*
G02*
X147825647Y-104861359I-53033J-53033D01*
G01*
X146835697Y-105851309D01*
G75*
G02*
X146729631Y-105851309I-53033J53033D01*
G01*
G37*
G36*
G01*
X147083184Y-106204862D02*
X146977118Y-106098796D01*
G75*
G02*
X146977118Y-105992730I53033J53033D01*
G01*
X147967068Y-105002780D01*
G75*
G02*
X148073134Y-105002780I53033J-53033D01*
G01*
X148179200Y-105108846D01*
G75*
G02*
X148179200Y-105214912I-53033J-53033D01*
G01*
X147189250Y-106204862D01*
G75*
G02*
X147083184Y-106204862I-53033J53033D01*
G01*
G37*
G36*
G01*
X147436738Y-106558416D02*
X147330672Y-106452350D01*
G75*
G02*
X147330672Y-106346284I53033J53033D01*
G01*
X148320622Y-105356334D01*
G75*
G02*
X148426688Y-105356334I53033J-53033D01*
G01*
X148532754Y-105462400D01*
G75*
G02*
X148532754Y-105568466I-53033J-53033D01*
G01*
X147542804Y-106558416D01*
G75*
G02*
X147436738Y-106558416I-53033J53033D01*
G01*
G37*
G36*
G01*
X147790291Y-106911969D02*
X147684225Y-106805903D01*
G75*
G02*
X147684225Y-106699837I53033J53033D01*
G01*
X148674175Y-105709887D01*
G75*
G02*
X148780241Y-105709887I53033J-53033D01*
G01*
X148886307Y-105815953D01*
G75*
G02*
X148886307Y-105922019I-53033J-53033D01*
G01*
X147896357Y-106911969D01*
G75*
G02*
X147790291Y-106911969I-53033J53033D01*
G01*
G37*
G36*
G01*
X148143844Y-107265522D02*
X148037778Y-107159456D01*
G75*
G02*
X148037778Y-107053390I53033J53033D01*
G01*
X149027728Y-106063440D01*
G75*
G02*
X149133794Y-106063440I53033J-53033D01*
G01*
X149239860Y-106169506D01*
G75*
G02*
X149239860Y-106275572I-53033J-53033D01*
G01*
X148249910Y-107265522D01*
G75*
G02*
X148143844Y-107265522I-53033J53033D01*
G01*
G37*
G36*
G01*
X151750090Y-107265522D02*
X150760140Y-106275572D01*
G75*
G02*
X150760140Y-106169506I53033J53033D01*
G01*
X150866206Y-106063440D01*
G75*
G02*
X150972272Y-106063440I53033J-53033D01*
G01*
X151962222Y-107053390D01*
G75*
G02*
X151962222Y-107159456I-53033J-53033D01*
G01*
X151856156Y-107265522D01*
G75*
G02*
X151750090Y-107265522I-53033J53033D01*
G01*
G37*
G36*
G01*
X152103643Y-106911969D02*
X151113693Y-105922019D01*
G75*
G02*
X151113693Y-105815953I53033J53033D01*
G01*
X151219759Y-105709887D01*
G75*
G02*
X151325825Y-105709887I53033J-53033D01*
G01*
X152315775Y-106699837D01*
G75*
G02*
X152315775Y-106805903I-53033J-53033D01*
G01*
X152209709Y-106911969D01*
G75*
G02*
X152103643Y-106911969I-53033J53033D01*
G01*
G37*
G36*
G01*
X152457196Y-106558416D02*
X151467246Y-105568466D01*
G75*
G02*
X151467246Y-105462400I53033J53033D01*
G01*
X151573312Y-105356334D01*
G75*
G02*
X151679378Y-105356334I53033J-53033D01*
G01*
X152669328Y-106346284D01*
G75*
G02*
X152669328Y-106452350I-53033J-53033D01*
G01*
X152563262Y-106558416D01*
G75*
G02*
X152457196Y-106558416I-53033J53033D01*
G01*
G37*
G36*
G01*
X152810750Y-106204862D02*
X151820800Y-105214912D01*
G75*
G02*
X151820800Y-105108846I53033J53033D01*
G01*
X151926866Y-105002780D01*
G75*
G02*
X152032932Y-105002780I53033J-53033D01*
G01*
X153022882Y-105992730D01*
G75*
G02*
X153022882Y-106098796I-53033J-53033D01*
G01*
X152916816Y-106204862D01*
G75*
G02*
X152810750Y-106204862I-53033J53033D01*
G01*
G37*
G36*
G01*
X153164303Y-105851309D02*
X152174353Y-104861359D01*
G75*
G02*
X152174353Y-104755293I53033J53033D01*
G01*
X152280419Y-104649227D01*
G75*
G02*
X152386485Y-104649227I53033J-53033D01*
G01*
X153376435Y-105639177D01*
G75*
G02*
X153376435Y-105745243I-53033J-53033D01*
G01*
X153270369Y-105851309D01*
G75*
G02*
X153164303Y-105851309I-53033J53033D01*
G01*
G37*
G36*
G01*
X153517857Y-105497755D02*
X152527907Y-104507805D01*
G75*
G02*
X152527907Y-104401739I53033J53033D01*
G01*
X152633973Y-104295673D01*
G75*
G02*
X152740039Y-104295673I53033J-53033D01*
G01*
X153729989Y-105285623D01*
G75*
G02*
X153729989Y-105391689I-53033J-53033D01*
G01*
X153623923Y-105497755D01*
G75*
G02*
X153517857Y-105497755I-53033J53033D01*
G01*
G37*
G36*
G01*
X153871410Y-105144202D02*
X152881460Y-104154252D01*
G75*
G02*
X152881460Y-104048186I53033J53033D01*
G01*
X152987526Y-103942120D01*
G75*
G02*
X153093592Y-103942120I53033J-53033D01*
G01*
X154083542Y-104932070D01*
G75*
G02*
X154083542Y-105038136I-53033J-53033D01*
G01*
X153977476Y-105144202D01*
G75*
G02*
X153871410Y-105144202I-53033J53033D01*
G01*
G37*
G36*
G01*
X154224963Y-104790649D02*
X153235013Y-103800699D01*
G75*
G02*
X153235013Y-103694633I53033J53033D01*
G01*
X153341079Y-103588567D01*
G75*
G02*
X153447145Y-103588567I53033J-53033D01*
G01*
X154437095Y-104578517D01*
G75*
G02*
X154437095Y-104684583I-53033J-53033D01*
G01*
X154331029Y-104790649D01*
G75*
G02*
X154224963Y-104790649I-53033J53033D01*
G01*
G37*
G36*
G01*
X154578517Y-104437095D02*
X153588567Y-103447145D01*
G75*
G02*
X153588567Y-103341079I53033J53033D01*
G01*
X153694633Y-103235013D01*
G75*
G02*
X153800699Y-103235013I53033J-53033D01*
G01*
X154790649Y-104224963D01*
G75*
G02*
X154790649Y-104331029I-53033J-53033D01*
G01*
X154684583Y-104437095D01*
G75*
G02*
X154578517Y-104437095I-53033J53033D01*
G01*
G37*
G36*
G01*
X154932070Y-104083542D02*
X153942120Y-103093592D01*
G75*
G02*
X153942120Y-102987526I53033J53033D01*
G01*
X154048186Y-102881460D01*
G75*
G02*
X154154252Y-102881460I53033J-53033D01*
G01*
X155144202Y-103871410D01*
G75*
G02*
X155144202Y-103977476I-53033J-53033D01*
G01*
X155038136Y-104083542D01*
G75*
G02*
X154932070Y-104083542I-53033J53033D01*
G01*
G37*
G36*
G01*
X155285623Y-103729989D02*
X154295673Y-102740039D01*
G75*
G02*
X154295673Y-102633973I53033J53033D01*
G01*
X154401739Y-102527907D01*
G75*
G02*
X154507805Y-102527907I53033J-53033D01*
G01*
X155497755Y-103517857D01*
G75*
G02*
X155497755Y-103623923I-53033J-53033D01*
G01*
X155391689Y-103729989D01*
G75*
G02*
X155285623Y-103729989I-53033J53033D01*
G01*
G37*
G36*
G01*
X155639177Y-103376435D02*
X154649227Y-102386485D01*
G75*
G02*
X154649227Y-102280419I53033J53033D01*
G01*
X154755293Y-102174353D01*
G75*
G02*
X154861359Y-102174353I53033J-53033D01*
G01*
X155851309Y-103164303D01*
G75*
G02*
X155851309Y-103270369I-53033J-53033D01*
G01*
X155745243Y-103376435D01*
G75*
G02*
X155639177Y-103376435I-53033J53033D01*
G01*
G37*
G36*
G01*
X155992730Y-103022882D02*
X155002780Y-102032932D01*
G75*
G02*
X155002780Y-101926866I53033J53033D01*
G01*
X155108846Y-101820800D01*
G75*
G02*
X155214912Y-101820800I53033J-53033D01*
G01*
X156204862Y-102810750D01*
G75*
G02*
X156204862Y-102916816I-53033J-53033D01*
G01*
X156098796Y-103022882D01*
G75*
G02*
X155992730Y-103022882I-53033J53033D01*
G01*
G37*
G36*
G01*
X156346284Y-102669328D02*
X155356334Y-101679378D01*
G75*
G02*
X155356334Y-101573312I53033J53033D01*
G01*
X155462400Y-101467246D01*
G75*
G02*
X155568466Y-101467246I53033J-53033D01*
G01*
X156558416Y-102457196D01*
G75*
G02*
X156558416Y-102563262I-53033J-53033D01*
G01*
X156452350Y-102669328D01*
G75*
G02*
X156346284Y-102669328I-53033J53033D01*
G01*
G37*
G36*
G01*
X156699837Y-102315775D02*
X155709887Y-101325825D01*
G75*
G02*
X155709887Y-101219759I53033J53033D01*
G01*
X155815953Y-101113693D01*
G75*
G02*
X155922019Y-101113693I53033J-53033D01*
G01*
X156911969Y-102103643D01*
G75*
G02*
X156911969Y-102209709I-53033J-53033D01*
G01*
X156805903Y-102315775D01*
G75*
G02*
X156699837Y-102315775I-53033J53033D01*
G01*
G37*
G36*
G01*
X157053390Y-101962222D02*
X156063440Y-100972272D01*
G75*
G02*
X156063440Y-100866206I53033J53033D01*
G01*
X156169506Y-100760140D01*
G75*
G02*
X156275572Y-100760140I53033J-53033D01*
G01*
X157265522Y-101750090D01*
G75*
G02*
X157265522Y-101856156I-53033J-53033D01*
G01*
X157159456Y-101962222D01*
G75*
G02*
X157053390Y-101962222I-53033J53033D01*
G01*
G37*
G36*
G01*
X156169506Y-99239860D02*
X156063440Y-99133794D01*
G75*
G02*
X156063440Y-99027728I53033J53033D01*
G01*
X157053390Y-98037778D01*
G75*
G02*
X157159456Y-98037778I53033J-53033D01*
G01*
X157265522Y-98143844D01*
G75*
G02*
X157265522Y-98249910I-53033J-53033D01*
G01*
X156275572Y-99239860D01*
G75*
G02*
X156169506Y-99239860I-53033J53033D01*
G01*
G37*
G36*
G01*
X155815953Y-98886307D02*
X155709887Y-98780241D01*
G75*
G02*
X155709887Y-98674175I53033J53033D01*
G01*
X156699837Y-97684225D01*
G75*
G02*
X156805903Y-97684225I53033J-53033D01*
G01*
X156911969Y-97790291D01*
G75*
G02*
X156911969Y-97896357I-53033J-53033D01*
G01*
X155922019Y-98886307D01*
G75*
G02*
X155815953Y-98886307I-53033J53033D01*
G01*
G37*
G36*
G01*
X155462400Y-98532754D02*
X155356334Y-98426688D01*
G75*
G02*
X155356334Y-98320622I53033J53033D01*
G01*
X156346284Y-97330672D01*
G75*
G02*
X156452350Y-97330672I53033J-53033D01*
G01*
X156558416Y-97436738D01*
G75*
G02*
X156558416Y-97542804I-53033J-53033D01*
G01*
X155568466Y-98532754D01*
G75*
G02*
X155462400Y-98532754I-53033J53033D01*
G01*
G37*
G36*
G01*
X155108846Y-98179200D02*
X155002780Y-98073134D01*
G75*
G02*
X155002780Y-97967068I53033J53033D01*
G01*
X155992730Y-96977118D01*
G75*
G02*
X156098796Y-96977118I53033J-53033D01*
G01*
X156204862Y-97083184D01*
G75*
G02*
X156204862Y-97189250I-53033J-53033D01*
G01*
X155214912Y-98179200D01*
G75*
G02*
X155108846Y-98179200I-53033J53033D01*
G01*
G37*
G36*
G01*
X154755293Y-97825647D02*
X154649227Y-97719581D01*
G75*
G02*
X154649227Y-97613515I53033J53033D01*
G01*
X155639177Y-96623565D01*
G75*
G02*
X155745243Y-96623565I53033J-53033D01*
G01*
X155851309Y-96729631D01*
G75*
G02*
X155851309Y-96835697I-53033J-53033D01*
G01*
X154861359Y-97825647D01*
G75*
G02*
X154755293Y-97825647I-53033J53033D01*
G01*
G37*
G36*
G01*
X154401739Y-97472093D02*
X154295673Y-97366027D01*
G75*
G02*
X154295673Y-97259961I53033J53033D01*
G01*
X155285623Y-96270011D01*
G75*
G02*
X155391689Y-96270011I53033J-53033D01*
G01*
X155497755Y-96376077D01*
G75*
G02*
X155497755Y-96482143I-53033J-53033D01*
G01*
X154507805Y-97472093D01*
G75*
G02*
X154401739Y-97472093I-53033J53033D01*
G01*
G37*
G36*
G01*
X154048186Y-97118540D02*
X153942120Y-97012474D01*
G75*
G02*
X153942120Y-96906408I53033J53033D01*
G01*
X154932070Y-95916458D01*
G75*
G02*
X155038136Y-95916458I53033J-53033D01*
G01*
X155144202Y-96022524D01*
G75*
G02*
X155144202Y-96128590I-53033J-53033D01*
G01*
X154154252Y-97118540D01*
G75*
G02*
X154048186Y-97118540I-53033J53033D01*
G01*
G37*
G36*
G01*
X153694633Y-96764987D02*
X153588567Y-96658921D01*
G75*
G02*
X153588567Y-96552855I53033J53033D01*
G01*
X154578517Y-95562905D01*
G75*
G02*
X154684583Y-95562905I53033J-53033D01*
G01*
X154790649Y-95668971D01*
G75*
G02*
X154790649Y-95775037I-53033J-53033D01*
G01*
X153800699Y-96764987D01*
G75*
G02*
X153694633Y-96764987I-53033J53033D01*
G01*
G37*
G36*
G01*
X153341079Y-96411433D02*
X153235013Y-96305367D01*
G75*
G02*
X153235013Y-96199301I53033J53033D01*
G01*
X154224963Y-95209351D01*
G75*
G02*
X154331029Y-95209351I53033J-53033D01*
G01*
X154437095Y-95315417D01*
G75*
G02*
X154437095Y-95421483I-53033J-53033D01*
G01*
X153447145Y-96411433D01*
G75*
G02*
X153341079Y-96411433I-53033J53033D01*
G01*
G37*
G36*
G01*
X152987526Y-96057880D02*
X152881460Y-95951814D01*
G75*
G02*
X152881460Y-95845748I53033J53033D01*
G01*
X153871410Y-94855798D01*
G75*
G02*
X153977476Y-94855798I53033J-53033D01*
G01*
X154083542Y-94961864D01*
G75*
G02*
X154083542Y-95067930I-53033J-53033D01*
G01*
X153093592Y-96057880D01*
G75*
G02*
X152987526Y-96057880I-53033J53033D01*
G01*
G37*
G36*
G01*
X152633973Y-95704327D02*
X152527907Y-95598261D01*
G75*
G02*
X152527907Y-95492195I53033J53033D01*
G01*
X153517857Y-94502245D01*
G75*
G02*
X153623923Y-94502245I53033J-53033D01*
G01*
X153729989Y-94608311D01*
G75*
G02*
X153729989Y-94714377I-53033J-53033D01*
G01*
X152740039Y-95704327D01*
G75*
G02*
X152633973Y-95704327I-53033J53033D01*
G01*
G37*
G36*
G01*
X152280419Y-95350773D02*
X152174353Y-95244707D01*
G75*
G02*
X152174353Y-95138641I53033J53033D01*
G01*
X153164303Y-94148691D01*
G75*
G02*
X153270369Y-94148691I53033J-53033D01*
G01*
X153376435Y-94254757D01*
G75*
G02*
X153376435Y-94360823I-53033J-53033D01*
G01*
X152386485Y-95350773D01*
G75*
G02*
X152280419Y-95350773I-53033J53033D01*
G01*
G37*
G36*
G01*
X151926866Y-94997220D02*
X151820800Y-94891154D01*
G75*
G02*
X151820800Y-94785088I53033J53033D01*
G01*
X152810750Y-93795138D01*
G75*
G02*
X152916816Y-93795138I53033J-53033D01*
G01*
X153022882Y-93901204D01*
G75*
G02*
X153022882Y-94007270I-53033J-53033D01*
G01*
X152032932Y-94997220D01*
G75*
G02*
X151926866Y-94997220I-53033J53033D01*
G01*
G37*
G36*
G01*
X151573312Y-94643666D02*
X151467246Y-94537600D01*
G75*
G02*
X151467246Y-94431534I53033J53033D01*
G01*
X152457196Y-93441584D01*
G75*
G02*
X152563262Y-93441584I53033J-53033D01*
G01*
X152669328Y-93547650D01*
G75*
G02*
X152669328Y-93653716I-53033J-53033D01*
G01*
X151679378Y-94643666D01*
G75*
G02*
X151573312Y-94643666I-53033J53033D01*
G01*
G37*
G36*
G01*
X151219759Y-94290113D02*
X151113693Y-94184047D01*
G75*
G02*
X151113693Y-94077981I53033J53033D01*
G01*
X152103643Y-93088031D01*
G75*
G02*
X152209709Y-93088031I53033J-53033D01*
G01*
X152315775Y-93194097D01*
G75*
G02*
X152315775Y-93300163I-53033J-53033D01*
G01*
X151325825Y-94290113D01*
G75*
G02*
X151219759Y-94290113I-53033J53033D01*
G01*
G37*
G36*
G01*
X150866206Y-93936560D02*
X150760140Y-93830494D01*
G75*
G02*
X150760140Y-93724428I53033J53033D01*
G01*
X151750090Y-92734478D01*
G75*
G02*
X151856156Y-92734478I53033J-53033D01*
G01*
X151962222Y-92840544D01*
G75*
G02*
X151962222Y-92946610I-53033J-53033D01*
G01*
X150972272Y-93936560D01*
G75*
G02*
X150866206Y-93936560I-53033J53033D01*
G01*
G37*
G36*
G01*
X149027728Y-93936560D02*
X148037778Y-92946610D01*
G75*
G02*
X148037778Y-92840544I53033J53033D01*
G01*
X148143844Y-92734478D01*
G75*
G02*
X148249910Y-92734478I53033J-53033D01*
G01*
X149239860Y-93724428D01*
G75*
G02*
X149239860Y-93830494I-53033J-53033D01*
G01*
X149133794Y-93936560D01*
G75*
G02*
X149027728Y-93936560I-53033J53033D01*
G01*
G37*
G36*
G01*
X148674175Y-94290113D02*
X147684225Y-93300163D01*
G75*
G02*
X147684225Y-93194097I53033J53033D01*
G01*
X147790291Y-93088031D01*
G75*
G02*
X147896357Y-93088031I53033J-53033D01*
G01*
X148886307Y-94077981D01*
G75*
G02*
X148886307Y-94184047I-53033J-53033D01*
G01*
X148780241Y-94290113D01*
G75*
G02*
X148674175Y-94290113I-53033J53033D01*
G01*
G37*
G36*
G01*
X148320622Y-94643666D02*
X147330672Y-93653716D01*
G75*
G02*
X147330672Y-93547650I53033J53033D01*
G01*
X147436738Y-93441584D01*
G75*
G02*
X147542804Y-93441584I53033J-53033D01*
G01*
X148532754Y-94431534D01*
G75*
G02*
X148532754Y-94537600I-53033J-53033D01*
G01*
X148426688Y-94643666D01*
G75*
G02*
X148320622Y-94643666I-53033J53033D01*
G01*
G37*
G36*
G01*
X147967068Y-94997220D02*
X146977118Y-94007270D01*
G75*
G02*
X146977118Y-93901204I53033J53033D01*
G01*
X147083184Y-93795138D01*
G75*
G02*
X147189250Y-93795138I53033J-53033D01*
G01*
X148179200Y-94785088D01*
G75*
G02*
X148179200Y-94891154I-53033J-53033D01*
G01*
X148073134Y-94997220D01*
G75*
G02*
X147967068Y-94997220I-53033J53033D01*
G01*
G37*
G36*
G01*
X147613515Y-95350773D02*
X146623565Y-94360823D01*
G75*
G02*
X146623565Y-94254757I53033J53033D01*
G01*
X146729631Y-94148691D01*
G75*
G02*
X146835697Y-94148691I53033J-53033D01*
G01*
X147825647Y-95138641D01*
G75*
G02*
X147825647Y-95244707I-53033J-53033D01*
G01*
X147719581Y-95350773D01*
G75*
G02*
X147613515Y-95350773I-53033J53033D01*
G01*
G37*
G36*
G01*
X147259961Y-95704327D02*
X146270011Y-94714377D01*
G75*
G02*
X146270011Y-94608311I53033J53033D01*
G01*
X146376077Y-94502245D01*
G75*
G02*
X146482143Y-94502245I53033J-53033D01*
G01*
X147472093Y-95492195D01*
G75*
G02*
X147472093Y-95598261I-53033J-53033D01*
G01*
X147366027Y-95704327D01*
G75*
G02*
X147259961Y-95704327I-53033J53033D01*
G01*
G37*
G36*
G01*
X146906408Y-96057880D02*
X145916458Y-95067930D01*
G75*
G02*
X145916458Y-94961864I53033J53033D01*
G01*
X146022524Y-94855798D01*
G75*
G02*
X146128590Y-94855798I53033J-53033D01*
G01*
X147118540Y-95845748D01*
G75*
G02*
X147118540Y-95951814I-53033J-53033D01*
G01*
X147012474Y-96057880D01*
G75*
G02*
X146906408Y-96057880I-53033J53033D01*
G01*
G37*
G36*
G01*
X146552855Y-96411433D02*
X145562905Y-95421483D01*
G75*
G02*
X145562905Y-95315417I53033J53033D01*
G01*
X145668971Y-95209351D01*
G75*
G02*
X145775037Y-95209351I53033J-53033D01*
G01*
X146764987Y-96199301D01*
G75*
G02*
X146764987Y-96305367I-53033J-53033D01*
G01*
X146658921Y-96411433D01*
G75*
G02*
X146552855Y-96411433I-53033J53033D01*
G01*
G37*
G36*
G01*
X146199301Y-96764987D02*
X145209351Y-95775037D01*
G75*
G02*
X145209351Y-95668971I53033J53033D01*
G01*
X145315417Y-95562905D01*
G75*
G02*
X145421483Y-95562905I53033J-53033D01*
G01*
X146411433Y-96552855D01*
G75*
G02*
X146411433Y-96658921I-53033J-53033D01*
G01*
X146305367Y-96764987D01*
G75*
G02*
X146199301Y-96764987I-53033J53033D01*
G01*
G37*
G36*
G01*
X145845748Y-97118540D02*
X144855798Y-96128590D01*
G75*
G02*
X144855798Y-96022524I53033J53033D01*
G01*
X144961864Y-95916458D01*
G75*
G02*
X145067930Y-95916458I53033J-53033D01*
G01*
X146057880Y-96906408D01*
G75*
G02*
X146057880Y-97012474I-53033J-53033D01*
G01*
X145951814Y-97118540D01*
G75*
G02*
X145845748Y-97118540I-53033J53033D01*
G01*
G37*
G36*
G01*
X145492195Y-97472093D02*
X144502245Y-96482143D01*
G75*
G02*
X144502245Y-96376077I53033J53033D01*
G01*
X144608311Y-96270011D01*
G75*
G02*
X144714377Y-96270011I53033J-53033D01*
G01*
X145704327Y-97259961D01*
G75*
G02*
X145704327Y-97366027I-53033J-53033D01*
G01*
X145598261Y-97472093D01*
G75*
G02*
X145492195Y-97472093I-53033J53033D01*
G01*
G37*
G36*
G01*
X145138641Y-97825647D02*
X144148691Y-96835697D01*
G75*
G02*
X144148691Y-96729631I53033J53033D01*
G01*
X144254757Y-96623565D01*
G75*
G02*
X144360823Y-96623565I53033J-53033D01*
G01*
X145350773Y-97613515D01*
G75*
G02*
X145350773Y-97719581I-53033J-53033D01*
G01*
X145244707Y-97825647D01*
G75*
G02*
X145138641Y-97825647I-53033J53033D01*
G01*
G37*
G36*
G01*
X144785088Y-98179200D02*
X143795138Y-97189250D01*
G75*
G02*
X143795138Y-97083184I53033J53033D01*
G01*
X143901204Y-96977118D01*
G75*
G02*
X144007270Y-96977118I53033J-53033D01*
G01*
X144997220Y-97967068D01*
G75*
G02*
X144997220Y-98073134I-53033J-53033D01*
G01*
X144891154Y-98179200D01*
G75*
G02*
X144785088Y-98179200I-53033J53033D01*
G01*
G37*
G36*
G01*
X144431534Y-98532754D02*
X143441584Y-97542804D01*
G75*
G02*
X143441584Y-97436738I53033J53033D01*
G01*
X143547650Y-97330672D01*
G75*
G02*
X143653716Y-97330672I53033J-53033D01*
G01*
X144643666Y-98320622D01*
G75*
G02*
X144643666Y-98426688I-53033J-53033D01*
G01*
X144537600Y-98532754D01*
G75*
G02*
X144431534Y-98532754I-53033J53033D01*
G01*
G37*
G36*
G01*
X144077981Y-98886307D02*
X143088031Y-97896357D01*
G75*
G02*
X143088031Y-97790291I53033J53033D01*
G01*
X143194097Y-97684225D01*
G75*
G02*
X143300163Y-97684225I53033J-53033D01*
G01*
X144290113Y-98674175D01*
G75*
G02*
X144290113Y-98780241I-53033J-53033D01*
G01*
X144184047Y-98886307D01*
G75*
G02*
X144077981Y-98886307I-53033J53033D01*
G01*
G37*
G36*
G01*
X143724428Y-99239860D02*
X142734478Y-98249910D01*
G75*
G02*
X142734478Y-98143844I53033J53033D01*
G01*
X142840544Y-98037778D01*
G75*
G02*
X142946610Y-98037778I53033J-53033D01*
G01*
X143936560Y-99027728D01*
G75*
G02*
X143936560Y-99133794I-53033J-53033D01*
G01*
X143830494Y-99239860D01*
G75*
G02*
X143724428Y-99239860I-53033J53033D01*
G01*
G37*
%TD*%
M02*
