%TF.GenerationSoftware,KiCad,Pcbnew,(5.1.9)-1*%
%TF.CreationDate,2021-04-29T23:37:35+02:00*%
%TF.ProjectId,STMega32,53544d65-6761-4333-922e-6b696361645f,rev?*%
%TF.SameCoordinates,Original*%
%TF.FileFunction,Legend,Top*%
%TF.FilePolarity,Positive*%
%FSLAX46Y46*%
G04 Gerber Fmt 4.6, Leading zero omitted, Abs format (unit mm)*
G04 Created by KiCad (PCBNEW (5.1.9)-1) date 2021-04-29 23:37:35*
%MOMM*%
%LPD*%
G01*
G04 APERTURE LIST*
%ADD10C,0.120000*%
%ADD11C,0.150000*%
G04 APERTURE END LIST*
D10*
%TO.C,C1*%
X130859420Y-97885000D02*
X131140580Y-97885000D01*
X130859420Y-96865000D02*
X131140580Y-96865000D01*
%TO.C,C2*%
X135660000Y-99859420D02*
X135660000Y-100140580D01*
X134640000Y-99859420D02*
X134640000Y-100140580D01*
%TO.C,C3*%
X131140580Y-102115000D02*
X130859420Y-102115000D01*
X131140580Y-103135000D02*
X130859420Y-103135000D01*
%TO.C,C4*%
X137235000Y-99859420D02*
X137235000Y-100140580D01*
X136215000Y-99859420D02*
X136215000Y-100140580D01*
%TO.C,Q1*%
X169680000Y-98840000D02*
X168270000Y-98840000D01*
X168270000Y-101160000D02*
X170300000Y-101160000D01*
X168270000Y-101160000D02*
X168270000Y-100500000D01*
X168270000Y-99500000D02*
X168270000Y-98840000D01*
%TO.C,R1*%
X169237258Y-98422500D02*
X168762742Y-98422500D01*
X169237258Y-97377500D02*
X168762742Y-97377500D01*
%TO.C,R2*%
X168762742Y-102622500D02*
X169237258Y-102622500D01*
X168762742Y-101577500D02*
X169237258Y-101577500D01*
%TO.C,U2*%
X132000000Y-98390000D02*
X129550000Y-98390000D01*
X130200000Y-101610000D02*
X132000000Y-101610000D01*
%TO.C,LED1*%
X129135000Y-101485000D02*
X129135000Y-99200000D01*
X127665000Y-101485000D02*
X129135000Y-101485000D01*
X127665000Y-99200000D02*
X127665000Y-101485000D01*
%TO.C,LED2*%
X170840000Y-99200000D02*
X170840000Y-101485000D01*
X170840000Y-101485000D02*
X172310000Y-101485000D01*
X172310000Y-101485000D02*
X172310000Y-99200000D01*
%TO.C,R3*%
X126377500Y-99762742D02*
X126377500Y-100237258D01*
X127422500Y-99762742D02*
X127422500Y-100237258D01*
%TO.C,R4*%
X173647500Y-99762742D02*
X173647500Y-100237258D01*
X172602500Y-99762742D02*
X172602500Y-100237258D01*
%TO.C,U1*%
X143445120Y-100671751D02*
X142497597Y-101619275D01*
X142773369Y-100000000D02*
X143445120Y-100671751D01*
X143445120Y-99328249D02*
X142773369Y-100000000D01*
X150000000Y-92773369D02*
X150671751Y-93445120D01*
X149328249Y-93445120D02*
X150000000Y-92773369D01*
X150000000Y-107226631D02*
X149328249Y-106554880D01*
X150671751Y-106554880D02*
X150000000Y-107226631D01*
X157226631Y-100000000D02*
X156554880Y-99328249D01*
X156554880Y-100671751D02*
X157226631Y-100000000D01*
%TO.C,C1*%
D11*
X133483333Y-96732142D02*
X133435714Y-96779761D01*
X133292857Y-96827380D01*
X133197619Y-96827380D01*
X133054761Y-96779761D01*
X132959523Y-96684523D01*
X132911904Y-96589285D01*
X132864285Y-96398809D01*
X132864285Y-96255952D01*
X132911904Y-96065476D01*
X132959523Y-95970238D01*
X133054761Y-95875000D01*
X133197619Y-95827380D01*
X133292857Y-95827380D01*
X133435714Y-95875000D01*
X133483333Y-95922619D01*
X134435714Y-96827380D02*
X133864285Y-96827380D01*
X134150000Y-96827380D02*
X134150000Y-95827380D01*
X134054761Y-95970238D01*
X133959523Y-96065476D01*
X133864285Y-96113095D01*
%TO.C,C2*%
X136057142Y-103091666D02*
X136104761Y-103139285D01*
X136152380Y-103282142D01*
X136152380Y-103377380D01*
X136104761Y-103520238D01*
X136009523Y-103615476D01*
X135914285Y-103663095D01*
X135723809Y-103710714D01*
X135580952Y-103710714D01*
X135390476Y-103663095D01*
X135295238Y-103615476D01*
X135200000Y-103520238D01*
X135152380Y-103377380D01*
X135152380Y-103282142D01*
X135200000Y-103139285D01*
X135247619Y-103091666D01*
X135247619Y-102710714D02*
X135200000Y-102663095D01*
X135152380Y-102567857D01*
X135152380Y-102329761D01*
X135200000Y-102234523D01*
X135247619Y-102186904D01*
X135342857Y-102139285D01*
X135438095Y-102139285D01*
X135580952Y-102186904D01*
X136152380Y-102758333D01*
X136152380Y-102139285D01*
%TO.C,C3*%
X133433333Y-103882142D02*
X133385714Y-103929761D01*
X133242857Y-103977380D01*
X133147619Y-103977380D01*
X133004761Y-103929761D01*
X132909523Y-103834523D01*
X132861904Y-103739285D01*
X132814285Y-103548809D01*
X132814285Y-103405952D01*
X132861904Y-103215476D01*
X132909523Y-103120238D01*
X133004761Y-103025000D01*
X133147619Y-102977380D01*
X133242857Y-102977380D01*
X133385714Y-103025000D01*
X133433333Y-103072619D01*
X133766666Y-102977380D02*
X134385714Y-102977380D01*
X134052380Y-103358333D01*
X134195238Y-103358333D01*
X134290476Y-103405952D01*
X134338095Y-103453571D01*
X134385714Y-103548809D01*
X134385714Y-103786904D01*
X134338095Y-103882142D01*
X134290476Y-103929761D01*
X134195238Y-103977380D01*
X133909523Y-103977380D01*
X133814285Y-103929761D01*
X133766666Y-103882142D01*
%TO.C,C4*%
X137507142Y-103041666D02*
X137554761Y-103089285D01*
X137602380Y-103232142D01*
X137602380Y-103327380D01*
X137554761Y-103470238D01*
X137459523Y-103565476D01*
X137364285Y-103613095D01*
X137173809Y-103660714D01*
X137030952Y-103660714D01*
X136840476Y-103613095D01*
X136745238Y-103565476D01*
X136650000Y-103470238D01*
X136602380Y-103327380D01*
X136602380Y-103232142D01*
X136650000Y-103089285D01*
X136697619Y-103041666D01*
X136935714Y-102184523D02*
X137602380Y-102184523D01*
X136554761Y-102422619D02*
X137269047Y-102660714D01*
X137269047Y-102041666D01*
%TO.C,Q1*%
X166354761Y-99597619D02*
X166259523Y-99550000D01*
X166164285Y-99454761D01*
X166021428Y-99311904D01*
X165926190Y-99264285D01*
X165830952Y-99264285D01*
X165878571Y-99502380D02*
X165783333Y-99454761D01*
X165688095Y-99359523D01*
X165640476Y-99169047D01*
X165640476Y-98835714D01*
X165688095Y-98645238D01*
X165783333Y-98550000D01*
X165878571Y-98502380D01*
X166069047Y-98502380D01*
X166164285Y-98550000D01*
X166259523Y-98645238D01*
X166307142Y-98835714D01*
X166307142Y-99169047D01*
X166259523Y-99359523D01*
X166164285Y-99454761D01*
X166069047Y-99502380D01*
X165878571Y-99502380D01*
X167259523Y-99502380D02*
X166688095Y-99502380D01*
X166973809Y-99502380D02*
X166973809Y-98502380D01*
X166878571Y-98645238D01*
X166783333Y-98740476D01*
X166688095Y-98788095D01*
%TO.C,R1*%
X165908333Y-96927380D02*
X165575000Y-96451190D01*
X165336904Y-96927380D02*
X165336904Y-95927380D01*
X165717857Y-95927380D01*
X165813095Y-95975000D01*
X165860714Y-96022619D01*
X165908333Y-96117857D01*
X165908333Y-96260714D01*
X165860714Y-96355952D01*
X165813095Y-96403571D01*
X165717857Y-96451190D01*
X165336904Y-96451190D01*
X166860714Y-96927380D02*
X166289285Y-96927380D01*
X166575000Y-96927380D02*
X166575000Y-95927380D01*
X166479761Y-96070238D01*
X166384523Y-96165476D01*
X166289285Y-96213095D01*
%TO.C,R2*%
X165883333Y-103552380D02*
X165550000Y-103076190D01*
X165311904Y-103552380D02*
X165311904Y-102552380D01*
X165692857Y-102552380D01*
X165788095Y-102600000D01*
X165835714Y-102647619D01*
X165883333Y-102742857D01*
X165883333Y-102885714D01*
X165835714Y-102980952D01*
X165788095Y-103028571D01*
X165692857Y-103076190D01*
X165311904Y-103076190D01*
X166264285Y-102647619D02*
X166311904Y-102600000D01*
X166407142Y-102552380D01*
X166645238Y-102552380D01*
X166740476Y-102600000D01*
X166788095Y-102647619D01*
X166835714Y-102742857D01*
X166835714Y-102838095D01*
X166788095Y-102980952D01*
X166216666Y-103552380D01*
X166835714Y-103552380D01*
%TO.C,U2*%
X132863095Y-101702380D02*
X132863095Y-102511904D01*
X132910714Y-102607142D01*
X132958333Y-102654761D01*
X133053571Y-102702380D01*
X133244047Y-102702380D01*
X133339285Y-102654761D01*
X133386904Y-102607142D01*
X133434523Y-102511904D01*
X133434523Y-101702380D01*
X133863095Y-101797619D02*
X133910714Y-101750000D01*
X134005952Y-101702380D01*
X134244047Y-101702380D01*
X134339285Y-101750000D01*
X134386904Y-101797619D01*
X134434523Y-101892857D01*
X134434523Y-101988095D01*
X134386904Y-102130952D01*
X133815476Y-102702380D01*
X134434523Y-102702380D01*
%TO.C,LED1*%
X126677380Y-97619047D02*
X126677380Y-98095238D01*
X125677380Y-98095238D01*
X126153571Y-97285714D02*
X126153571Y-96952380D01*
X126677380Y-96809523D02*
X126677380Y-97285714D01*
X125677380Y-97285714D01*
X125677380Y-96809523D01*
X126677380Y-96380952D02*
X125677380Y-96380952D01*
X125677380Y-96142857D01*
X125725000Y-96000000D01*
X125820238Y-95904761D01*
X125915476Y-95857142D01*
X126105952Y-95809523D01*
X126248809Y-95809523D01*
X126439285Y-95857142D01*
X126534523Y-95904761D01*
X126629761Y-96000000D01*
X126677380Y-96142857D01*
X126677380Y-96380952D01*
X126677380Y-94857142D02*
X126677380Y-95428571D01*
X126677380Y-95142857D02*
X125677380Y-95142857D01*
X125820238Y-95238095D01*
X125915476Y-95333333D01*
X125963095Y-95428571D01*
%TO.C,LED2*%
X173277380Y-104644047D02*
X173277380Y-105120238D01*
X172277380Y-105120238D01*
X172753571Y-104310714D02*
X172753571Y-103977380D01*
X173277380Y-103834523D02*
X173277380Y-104310714D01*
X172277380Y-104310714D01*
X172277380Y-103834523D01*
X173277380Y-103405952D02*
X172277380Y-103405952D01*
X172277380Y-103167857D01*
X172325000Y-103025000D01*
X172420238Y-102929761D01*
X172515476Y-102882142D01*
X172705952Y-102834523D01*
X172848809Y-102834523D01*
X173039285Y-102882142D01*
X173134523Y-102929761D01*
X173229761Y-103025000D01*
X173277380Y-103167857D01*
X173277380Y-103405952D01*
X172372619Y-102453571D02*
X172325000Y-102405952D01*
X172277380Y-102310714D01*
X172277380Y-102072619D01*
X172325000Y-101977380D01*
X172372619Y-101929761D01*
X172467857Y-101882142D01*
X172563095Y-101882142D01*
X172705952Y-101929761D01*
X173277380Y-102501190D01*
X173277380Y-101882142D01*
%TO.C,R3*%
X128402380Y-102891666D02*
X127926190Y-103225000D01*
X128402380Y-103463095D02*
X127402380Y-103463095D01*
X127402380Y-103082142D01*
X127450000Y-102986904D01*
X127497619Y-102939285D01*
X127592857Y-102891666D01*
X127735714Y-102891666D01*
X127830952Y-102939285D01*
X127878571Y-102986904D01*
X127926190Y-103082142D01*
X127926190Y-103463095D01*
X127402380Y-102558333D02*
X127402380Y-101939285D01*
X127783333Y-102272619D01*
X127783333Y-102129761D01*
X127830952Y-102034523D01*
X127878571Y-101986904D01*
X127973809Y-101939285D01*
X128211904Y-101939285D01*
X128307142Y-101986904D01*
X128354761Y-102034523D01*
X128402380Y-102129761D01*
X128402380Y-102415476D01*
X128354761Y-102510714D01*
X128307142Y-102558333D01*
%TO.C,R4*%
X174202380Y-97516666D02*
X173726190Y-97850000D01*
X174202380Y-98088095D02*
X173202380Y-98088095D01*
X173202380Y-97707142D01*
X173250000Y-97611904D01*
X173297619Y-97564285D01*
X173392857Y-97516666D01*
X173535714Y-97516666D01*
X173630952Y-97564285D01*
X173678571Y-97611904D01*
X173726190Y-97707142D01*
X173726190Y-98088095D01*
X173535714Y-96659523D02*
X174202380Y-96659523D01*
X173154761Y-96897619D02*
X173869047Y-97135714D01*
X173869047Y-96516666D01*
%TO.C,U1*%
X143841436Y-94918932D02*
X144413856Y-95491352D01*
X144514871Y-95525024D01*
X144582215Y-95525024D01*
X144683230Y-95491352D01*
X144817917Y-95356665D01*
X144851589Y-95255650D01*
X144851589Y-95188306D01*
X144817917Y-95087291D01*
X144245497Y-94514871D01*
X145659711Y-94514871D02*
X145255650Y-94918932D01*
X145457680Y-94716902D02*
X144750574Y-94009795D01*
X144784245Y-94178154D01*
X144784245Y-94312841D01*
X144750574Y-94413856D01*
%TD*%
M02*
