%TF.GenerationSoftware,KiCad,Pcbnew,(5.1.6)-1*%
%TF.CreationDate,2021-05-26T00:29:25+02:00*%
%TF.ProjectId,STMega32,53544d65-6761-4333-922e-6b696361645f,rev?*%
%TF.SameCoordinates,Original*%
%TF.FileFunction,Legend,Top*%
%TF.FilePolarity,Positive*%
%FSLAX46Y46*%
G04 Gerber Fmt 4.6, Leading zero omitted, Abs format (unit mm)*
G04 Created by KiCad (PCBNEW (5.1.6)-1) date 2021-05-26 00:29:25*
%MOMM*%
%LPD*%
G01*
G04 APERTURE LIST*
%ADD10C,0.120000*%
%ADD11C,0.150000*%
G04 APERTURE END LIST*
D10*
%TO.C,C1*%
X130859420Y-97885000D02*
X131140580Y-97885000D01*
X130859420Y-96865000D02*
X131140580Y-96865000D01*
%TO.C,C2*%
X135660000Y-99859420D02*
X135660000Y-100140580D01*
X134640000Y-99859420D02*
X134640000Y-100140580D01*
%TO.C,C3*%
X131140580Y-102115000D02*
X130859420Y-102115000D01*
X131140580Y-103135000D02*
X130859420Y-103135000D01*
%TO.C,C4*%
X137235000Y-99859420D02*
X137235000Y-100140580D01*
X136215000Y-99859420D02*
X136215000Y-100140580D01*
%TO.C,Q1*%
X169680000Y-98840000D02*
X168270000Y-98840000D01*
X168270000Y-101160000D02*
X170300000Y-101160000D01*
X168270000Y-101160000D02*
X168270000Y-100500000D01*
X168270000Y-99500000D02*
X168270000Y-98840000D01*
%TO.C,R1*%
X169237258Y-98422500D02*
X168762742Y-98422500D01*
X169237258Y-97377500D02*
X168762742Y-97377500D01*
%TO.C,R2*%
X169237258Y-101577500D02*
X168762742Y-101577500D01*
X169237258Y-102622500D02*
X168762742Y-102622500D01*
%TO.C,U2*%
X132000000Y-98390000D02*
X129550000Y-98390000D01*
X130200000Y-101610000D02*
X132000000Y-101610000D01*
%TO.C,Power*%
X129135000Y-101485000D02*
X129135000Y-99200000D01*
X127665000Y-101485000D02*
X129135000Y-101485000D01*
X127665000Y-99200000D02*
X127665000Y-101485000D01*
%TO.C,Caps Lock*%
X170840000Y-99200000D02*
X170840000Y-101485000D01*
X170840000Y-101485000D02*
X172310000Y-101485000D01*
X172310000Y-101485000D02*
X172310000Y-99200000D01*
%TO.C,R3*%
X126377500Y-99762742D02*
X126377500Y-100237258D01*
X127422500Y-99762742D02*
X127422500Y-100237258D01*
%TO.C,R4*%
X173647500Y-99762742D02*
X173647500Y-100237258D01*
X172602500Y-99762742D02*
X172602500Y-100237258D01*
%TO.C,U1*%
X143445120Y-100671751D02*
X142497597Y-101619275D01*
X142773369Y-100000000D02*
X143445120Y-100671751D01*
X143445120Y-99328249D02*
X142773369Y-100000000D01*
X150000000Y-92773369D02*
X150671751Y-93445120D01*
X149328249Y-93445120D02*
X150000000Y-92773369D01*
X150000000Y-107226631D02*
X149328249Y-106554880D01*
X150671751Y-106554880D02*
X150000000Y-107226631D01*
X157226631Y-100000000D02*
X156554880Y-99328249D01*
X156554880Y-100671751D02*
X157226631Y-100000000D01*
%TO.C,C1*%
D11*
X133483333Y-96732142D02*
X133435714Y-96779761D01*
X133292857Y-96827380D01*
X133197619Y-96827380D01*
X133054761Y-96779761D01*
X132959523Y-96684523D01*
X132911904Y-96589285D01*
X132864285Y-96398809D01*
X132864285Y-96255952D01*
X132911904Y-96065476D01*
X132959523Y-95970238D01*
X133054761Y-95875000D01*
X133197619Y-95827380D01*
X133292857Y-95827380D01*
X133435714Y-95875000D01*
X133483333Y-95922619D01*
X134435714Y-96827380D02*
X133864285Y-96827380D01*
X134150000Y-96827380D02*
X134150000Y-95827380D01*
X134054761Y-95970238D01*
X133959523Y-96065476D01*
X133864285Y-96113095D01*
%TO.C,C2*%
X136057142Y-103091666D02*
X136104761Y-103139285D01*
X136152380Y-103282142D01*
X136152380Y-103377380D01*
X136104761Y-103520238D01*
X136009523Y-103615476D01*
X135914285Y-103663095D01*
X135723809Y-103710714D01*
X135580952Y-103710714D01*
X135390476Y-103663095D01*
X135295238Y-103615476D01*
X135200000Y-103520238D01*
X135152380Y-103377380D01*
X135152380Y-103282142D01*
X135200000Y-103139285D01*
X135247619Y-103091666D01*
X135247619Y-102710714D02*
X135200000Y-102663095D01*
X135152380Y-102567857D01*
X135152380Y-102329761D01*
X135200000Y-102234523D01*
X135247619Y-102186904D01*
X135342857Y-102139285D01*
X135438095Y-102139285D01*
X135580952Y-102186904D01*
X136152380Y-102758333D01*
X136152380Y-102139285D01*
%TO.C,C3*%
X133433333Y-103882142D02*
X133385714Y-103929761D01*
X133242857Y-103977380D01*
X133147619Y-103977380D01*
X133004761Y-103929761D01*
X132909523Y-103834523D01*
X132861904Y-103739285D01*
X132814285Y-103548809D01*
X132814285Y-103405952D01*
X132861904Y-103215476D01*
X132909523Y-103120238D01*
X133004761Y-103025000D01*
X133147619Y-102977380D01*
X133242857Y-102977380D01*
X133385714Y-103025000D01*
X133433333Y-103072619D01*
X133766666Y-102977380D02*
X134385714Y-102977380D01*
X134052380Y-103358333D01*
X134195238Y-103358333D01*
X134290476Y-103405952D01*
X134338095Y-103453571D01*
X134385714Y-103548809D01*
X134385714Y-103786904D01*
X134338095Y-103882142D01*
X134290476Y-103929761D01*
X134195238Y-103977380D01*
X133909523Y-103977380D01*
X133814285Y-103929761D01*
X133766666Y-103882142D01*
%TO.C,C4*%
X137507142Y-103041666D02*
X137554761Y-103089285D01*
X137602380Y-103232142D01*
X137602380Y-103327380D01*
X137554761Y-103470238D01*
X137459523Y-103565476D01*
X137364285Y-103613095D01*
X137173809Y-103660714D01*
X137030952Y-103660714D01*
X136840476Y-103613095D01*
X136745238Y-103565476D01*
X136650000Y-103470238D01*
X136602380Y-103327380D01*
X136602380Y-103232142D01*
X136650000Y-103089285D01*
X136697619Y-103041666D01*
X136935714Y-102184523D02*
X137602380Y-102184523D01*
X136554761Y-102422619D02*
X137269047Y-102660714D01*
X137269047Y-102041666D01*
%TO.C,Q1*%
X166354761Y-99597619D02*
X166259523Y-99550000D01*
X166164285Y-99454761D01*
X166021428Y-99311904D01*
X165926190Y-99264285D01*
X165830952Y-99264285D01*
X165878571Y-99502380D02*
X165783333Y-99454761D01*
X165688095Y-99359523D01*
X165640476Y-99169047D01*
X165640476Y-98835714D01*
X165688095Y-98645238D01*
X165783333Y-98550000D01*
X165878571Y-98502380D01*
X166069047Y-98502380D01*
X166164285Y-98550000D01*
X166259523Y-98645238D01*
X166307142Y-98835714D01*
X166307142Y-99169047D01*
X166259523Y-99359523D01*
X166164285Y-99454761D01*
X166069047Y-99502380D01*
X165878571Y-99502380D01*
X167259523Y-99502380D02*
X166688095Y-99502380D01*
X166973809Y-99502380D02*
X166973809Y-98502380D01*
X166878571Y-98645238D01*
X166783333Y-98740476D01*
X166688095Y-98788095D01*
%TO.C,R1*%
X166263333Y-98192380D02*
X165930000Y-97716190D01*
X165691904Y-98192380D02*
X165691904Y-97192380D01*
X166072857Y-97192380D01*
X166168095Y-97240000D01*
X166215714Y-97287619D01*
X166263333Y-97382857D01*
X166263333Y-97525714D01*
X166215714Y-97620952D01*
X166168095Y-97668571D01*
X166072857Y-97716190D01*
X165691904Y-97716190D01*
X167215714Y-98192380D02*
X166644285Y-98192380D01*
X166930000Y-98192380D02*
X166930000Y-97192380D01*
X166834761Y-97335238D01*
X166739523Y-97430476D01*
X166644285Y-97478095D01*
%TO.C,R2*%
X166393333Y-101902380D02*
X166060000Y-101426190D01*
X165821904Y-101902380D02*
X165821904Y-100902380D01*
X166202857Y-100902380D01*
X166298095Y-100950000D01*
X166345714Y-100997619D01*
X166393333Y-101092857D01*
X166393333Y-101235714D01*
X166345714Y-101330952D01*
X166298095Y-101378571D01*
X166202857Y-101426190D01*
X165821904Y-101426190D01*
X166774285Y-100997619D02*
X166821904Y-100950000D01*
X166917142Y-100902380D01*
X167155238Y-100902380D01*
X167250476Y-100950000D01*
X167298095Y-100997619D01*
X167345714Y-101092857D01*
X167345714Y-101188095D01*
X167298095Y-101330952D01*
X166726666Y-101902380D01*
X167345714Y-101902380D01*
%TO.C,U2*%
X132863095Y-101702380D02*
X132863095Y-102511904D01*
X132910714Y-102607142D01*
X132958333Y-102654761D01*
X133053571Y-102702380D01*
X133244047Y-102702380D01*
X133339285Y-102654761D01*
X133386904Y-102607142D01*
X133434523Y-102511904D01*
X133434523Y-101702380D01*
X133863095Y-101797619D02*
X133910714Y-101750000D01*
X134005952Y-101702380D01*
X134244047Y-101702380D01*
X134339285Y-101750000D01*
X134386904Y-101797619D01*
X134434523Y-101892857D01*
X134434523Y-101988095D01*
X134386904Y-102130952D01*
X133815476Y-102702380D01*
X134434523Y-102702380D01*
%TO.C,Power*%
X125263809Y-103072380D02*
X125263809Y-102072380D01*
X125644761Y-102072380D01*
X125740000Y-102120000D01*
X125787619Y-102167619D01*
X125835238Y-102262857D01*
X125835238Y-102405714D01*
X125787619Y-102500952D01*
X125740000Y-102548571D01*
X125644761Y-102596190D01*
X125263809Y-102596190D01*
X126406666Y-103072380D02*
X126311428Y-103024761D01*
X126263809Y-102977142D01*
X126216190Y-102881904D01*
X126216190Y-102596190D01*
X126263809Y-102500952D01*
X126311428Y-102453333D01*
X126406666Y-102405714D01*
X126549523Y-102405714D01*
X126644761Y-102453333D01*
X126692380Y-102500952D01*
X126740000Y-102596190D01*
X126740000Y-102881904D01*
X126692380Y-102977142D01*
X126644761Y-103024761D01*
X126549523Y-103072380D01*
X126406666Y-103072380D01*
X127073333Y-102405714D02*
X127263809Y-103072380D01*
X127454285Y-102596190D01*
X127644761Y-103072380D01*
X127835238Y-102405714D01*
X128597142Y-103024761D02*
X128501904Y-103072380D01*
X128311428Y-103072380D01*
X128216190Y-103024761D01*
X128168571Y-102929523D01*
X128168571Y-102548571D01*
X128216190Y-102453333D01*
X128311428Y-102405714D01*
X128501904Y-102405714D01*
X128597142Y-102453333D01*
X128644761Y-102548571D01*
X128644761Y-102643809D01*
X128168571Y-102739047D01*
X129073333Y-103072380D02*
X129073333Y-102405714D01*
X129073333Y-102596190D02*
X129120952Y-102500952D01*
X129168571Y-102453333D01*
X129263809Y-102405714D01*
X129359047Y-102405714D01*
%TO.C,Caps Lock*%
X167718571Y-103687142D02*
X167670952Y-103734761D01*
X167528095Y-103782380D01*
X167432857Y-103782380D01*
X167290000Y-103734761D01*
X167194761Y-103639523D01*
X167147142Y-103544285D01*
X167099523Y-103353809D01*
X167099523Y-103210952D01*
X167147142Y-103020476D01*
X167194761Y-102925238D01*
X167290000Y-102830000D01*
X167432857Y-102782380D01*
X167528095Y-102782380D01*
X167670952Y-102830000D01*
X167718571Y-102877619D01*
X168575714Y-103782380D02*
X168575714Y-103258571D01*
X168528095Y-103163333D01*
X168432857Y-103115714D01*
X168242380Y-103115714D01*
X168147142Y-103163333D01*
X168575714Y-103734761D02*
X168480476Y-103782380D01*
X168242380Y-103782380D01*
X168147142Y-103734761D01*
X168099523Y-103639523D01*
X168099523Y-103544285D01*
X168147142Y-103449047D01*
X168242380Y-103401428D01*
X168480476Y-103401428D01*
X168575714Y-103353809D01*
X169051904Y-103115714D02*
X169051904Y-104115714D01*
X169051904Y-103163333D02*
X169147142Y-103115714D01*
X169337619Y-103115714D01*
X169432857Y-103163333D01*
X169480476Y-103210952D01*
X169528095Y-103306190D01*
X169528095Y-103591904D01*
X169480476Y-103687142D01*
X169432857Y-103734761D01*
X169337619Y-103782380D01*
X169147142Y-103782380D01*
X169051904Y-103734761D01*
X169909047Y-103734761D02*
X170004285Y-103782380D01*
X170194761Y-103782380D01*
X170290000Y-103734761D01*
X170337619Y-103639523D01*
X170337619Y-103591904D01*
X170290000Y-103496666D01*
X170194761Y-103449047D01*
X170051904Y-103449047D01*
X169956666Y-103401428D01*
X169909047Y-103306190D01*
X169909047Y-103258571D01*
X169956666Y-103163333D01*
X170051904Y-103115714D01*
X170194761Y-103115714D01*
X170290000Y-103163333D01*
X172004285Y-103782380D02*
X171528095Y-103782380D01*
X171528095Y-102782380D01*
X172480476Y-103782380D02*
X172385238Y-103734761D01*
X172337619Y-103687142D01*
X172290000Y-103591904D01*
X172290000Y-103306190D01*
X172337619Y-103210952D01*
X172385238Y-103163333D01*
X172480476Y-103115714D01*
X172623333Y-103115714D01*
X172718571Y-103163333D01*
X172766190Y-103210952D01*
X172813809Y-103306190D01*
X172813809Y-103591904D01*
X172766190Y-103687142D01*
X172718571Y-103734761D01*
X172623333Y-103782380D01*
X172480476Y-103782380D01*
X173670952Y-103734761D02*
X173575714Y-103782380D01*
X173385238Y-103782380D01*
X173290000Y-103734761D01*
X173242380Y-103687142D01*
X173194761Y-103591904D01*
X173194761Y-103306190D01*
X173242380Y-103210952D01*
X173290000Y-103163333D01*
X173385238Y-103115714D01*
X173575714Y-103115714D01*
X173670952Y-103163333D01*
X174099523Y-103782380D02*
X174099523Y-102782380D01*
X174194761Y-103401428D02*
X174480476Y-103782380D01*
X174480476Y-103115714D02*
X174099523Y-103496666D01*
%TO.C,R3*%
X127312380Y-97496666D02*
X126836190Y-97830000D01*
X127312380Y-98068095D02*
X126312380Y-98068095D01*
X126312380Y-97687142D01*
X126360000Y-97591904D01*
X126407619Y-97544285D01*
X126502857Y-97496666D01*
X126645714Y-97496666D01*
X126740952Y-97544285D01*
X126788571Y-97591904D01*
X126836190Y-97687142D01*
X126836190Y-98068095D01*
X126312380Y-97163333D02*
X126312380Y-96544285D01*
X126693333Y-96877619D01*
X126693333Y-96734761D01*
X126740952Y-96639523D01*
X126788571Y-96591904D01*
X126883809Y-96544285D01*
X127121904Y-96544285D01*
X127217142Y-96591904D01*
X127264761Y-96639523D01*
X127312380Y-96734761D01*
X127312380Y-97020476D01*
X127264761Y-97115714D01*
X127217142Y-97163333D01*
%TO.C,R4*%
X173602380Y-97536666D02*
X173126190Y-97870000D01*
X173602380Y-98108095D02*
X172602380Y-98108095D01*
X172602380Y-97727142D01*
X172650000Y-97631904D01*
X172697619Y-97584285D01*
X172792857Y-97536666D01*
X172935714Y-97536666D01*
X173030952Y-97584285D01*
X173078571Y-97631904D01*
X173126190Y-97727142D01*
X173126190Y-98108095D01*
X172935714Y-96679523D02*
X173602380Y-96679523D01*
X172554761Y-96917619D02*
X173269047Y-97155714D01*
X173269047Y-96536666D01*
%TO.C,U1*%
X143841436Y-94918932D02*
X144413856Y-95491352D01*
X144514871Y-95525024D01*
X144582215Y-95525024D01*
X144683230Y-95491352D01*
X144817917Y-95356665D01*
X144851589Y-95255650D01*
X144851589Y-95188306D01*
X144817917Y-95087291D01*
X144245497Y-94514871D01*
X145659711Y-94514871D02*
X145255650Y-94918932D01*
X145457680Y-94716902D02*
X144750574Y-94009795D01*
X144784245Y-94178154D01*
X144784245Y-94312841D01*
X144750574Y-94413856D01*
%TD*%
M02*
